<mxfile host="app.diagrams.net" modified="2023-05-24T19:42:45.215Z" agent="Mozilla/5.0 (Windows NT 10.0; Win64; x64) AppleWebKit/537.36 (KHTML, like Gecko) Chrome/113.0.0.0 Safari/537.36" etag="ZFfpwL8EUo6zOfiG9Hjn" version="21.1.2" type="device">
  <diagram name="Página-1" id="ax7ldsCwAaVFof1r4sNA">
    <mxGraphModel dx="5926" dy="4218" grid="1" gridSize="10" guides="1" tooltips="1" connect="1" arrows="1" fold="1" page="1" pageScale="1" pageWidth="827" pageHeight="1169" math="0" shadow="0">
      <root>
        <mxCell id="0" />
        <mxCell id="1" parent="0" />
        <mxCell id="e3RdAfa4chM_5yPiw1lw-11" style="edgeStyle=orthogonalEdgeStyle;rounded=0;orthogonalLoop=1;jettySize=auto;html=1;exitX=0.5;exitY=1;exitDx=0;exitDy=0;entryX=0.5;entryY=0;entryDx=0;entryDy=0;" edge="1" parent="1" source="e3RdAfa4chM_5yPiw1lw-2" target="e3RdAfa4chM_5yPiw1lw-3">
          <mxGeometry relative="1" as="geometry" />
        </mxCell>
        <mxCell id="e3RdAfa4chM_5yPiw1lw-2" value="Inicio Combate" style="ellipse;whiteSpace=wrap;html=1;aspect=fixed;" vertex="1" parent="1">
          <mxGeometry x="390" y="100" width="100" height="100" as="geometry" />
        </mxCell>
        <mxCell id="e3RdAfa4chM_5yPiw1lw-12" style="edgeStyle=orthogonalEdgeStyle;rounded=0;orthogonalLoop=1;jettySize=auto;html=1;exitX=0.5;exitY=1;exitDx=0;exitDy=0;entryX=0.5;entryY=0;entryDx=0;entryDy=0;" edge="1" parent="1" source="e3RdAfa4chM_5yPiw1lw-3" target="e3RdAfa4chM_5yPiw1lw-4">
          <mxGeometry relative="1" as="geometry" />
        </mxCell>
        <mxCell id="e3RdAfa4chM_5yPiw1lw-3" value="Elección Ataque&lt;br&gt;Aliado" style="ellipse;whiteSpace=wrap;html=1;aspect=fixed;" vertex="1" parent="1">
          <mxGeometry x="390" y="240" width="100" height="100" as="geometry" />
        </mxCell>
        <mxCell id="e3RdAfa4chM_5yPiw1lw-13" style="edgeStyle=orthogonalEdgeStyle;rounded=0;orthogonalLoop=1;jettySize=auto;html=1;exitX=0.5;exitY=1;exitDx=0;exitDy=0;entryX=0.5;entryY=0;entryDx=0;entryDy=0;" edge="1" parent="1" source="e3RdAfa4chM_5yPiw1lw-4" target="e3RdAfa4chM_5yPiw1lw-9">
          <mxGeometry relative="1" as="geometry" />
        </mxCell>
        <mxCell id="e3RdAfa4chM_5yPiw1lw-4" value="Placaje" style="ellipse;whiteSpace=wrap;html=1;aspect=fixed;" vertex="1" parent="1">
          <mxGeometry x="390" y="380" width="100" height="100" as="geometry" />
        </mxCell>
        <mxCell id="e3RdAfa4chM_5yPiw1lw-30" style="edgeStyle=orthogonalEdgeStyle;rounded=0;orthogonalLoop=1;jettySize=auto;html=1;entryX=0;entryY=0.5;entryDx=0;entryDy=0;" edge="1" parent="1" source="e3RdAfa4chM_5yPiw1lw-5" target="e3RdAfa4chM_5yPiw1lw-3">
          <mxGeometry relative="1" as="geometry">
            <mxPoint x="330" y="330" as="targetPoint" />
            <Array as="points">
              <mxPoint x="240" y="710" />
              <mxPoint x="240" y="290" />
            </Array>
          </mxGeometry>
        </mxCell>
        <mxCell id="e3RdAfa4chM_5yPiw1lw-31" style="edgeStyle=orthogonalEdgeStyle;rounded=0;orthogonalLoop=1;jettySize=auto;html=1;entryX=0.5;entryY=0;entryDx=0;entryDy=0;" edge="1" parent="1" source="e3RdAfa4chM_5yPiw1lw-5" target="e3RdAfa4chM_5yPiw1lw-29">
          <mxGeometry relative="1" as="geometry" />
        </mxCell>
        <mxCell id="e3RdAfa4chM_5yPiw1lw-5" value="Esquive" style="ellipse;whiteSpace=wrap;html=1;aspect=fixed;" vertex="1" parent="1">
          <mxGeometry x="290" y="660" width="100" height="100" as="geometry" />
        </mxCell>
        <mxCell id="e3RdAfa4chM_5yPiw1lw-37" style="edgeStyle=orthogonalEdgeStyle;rounded=0;orthogonalLoop=1;jettySize=auto;html=1;exitX=1;exitY=1;exitDx=0;exitDy=0;entryX=1;entryY=0;entryDx=0;entryDy=0;" edge="1" parent="1" source="e3RdAfa4chM_5yPiw1lw-6" target="e3RdAfa4chM_5yPiw1lw-34">
          <mxGeometry relative="1" as="geometry" />
        </mxCell>
        <mxCell id="e3RdAfa4chM_5yPiw1lw-40" style="edgeStyle=orthogonalEdgeStyle;rounded=0;orthogonalLoop=1;jettySize=auto;html=1;exitX=0;exitY=1;exitDx=0;exitDy=0;entryX=1;entryY=1;entryDx=0;entryDy=0;" edge="1" parent="1" source="e3RdAfa4chM_5yPiw1lw-6" target="e3RdAfa4chM_5yPiw1lw-3">
          <mxGeometry relative="1" as="geometry">
            <Array as="points">
              <mxPoint x="460" y="750" />
              <mxPoint x="460" y="630" />
              <mxPoint x="560" y="630" />
              <mxPoint x="560" y="325" />
            </Array>
          </mxGeometry>
        </mxCell>
        <mxCell id="e3RdAfa4chM_5yPiw1lw-6" value="Curacion" style="ellipse;whiteSpace=wrap;html=1;aspect=fixed;" vertex="1" parent="1">
          <mxGeometry x="490" y="665" width="100" height="100" as="geometry" />
        </mxCell>
        <mxCell id="e3RdAfa4chM_5yPiw1lw-41" style="edgeStyle=orthogonalEdgeStyle;rounded=0;orthogonalLoop=1;jettySize=auto;html=1;entryX=0.5;entryY=0;entryDx=0;entryDy=0;" edge="1" parent="1" source="e3RdAfa4chM_5yPiw1lw-7" target="e3RdAfa4chM_5yPiw1lw-35">
          <mxGeometry relative="1" as="geometry" />
        </mxCell>
        <mxCell id="e3RdAfa4chM_5yPiw1lw-7" value="Elemental" style="ellipse;whiteSpace=wrap;html=1;aspect=fixed;" vertex="1" parent="1">
          <mxGeometry x="690" y="660" width="100" height="100" as="geometry" />
        </mxCell>
        <mxCell id="e3RdAfa4chM_5yPiw1lw-28" style="edgeStyle=orthogonalEdgeStyle;rounded=0;orthogonalLoop=1;jettySize=auto;html=1;entryX=0.5;entryY=0;entryDx=0;entryDy=0;" edge="1" parent="1" source="e3RdAfa4chM_5yPiw1lw-8" target="e3RdAfa4chM_5yPiw1lw-18">
          <mxGeometry relative="1" as="geometry" />
        </mxCell>
        <mxCell id="e3RdAfa4chM_5yPiw1lw-8" value="Placaje" style="ellipse;whiteSpace=wrap;html=1;aspect=fixed;" vertex="1" parent="1">
          <mxGeometry x="90" y="660" width="100" height="100" as="geometry" />
        </mxCell>
        <mxCell id="e3RdAfa4chM_5yPiw1lw-14" style="edgeStyle=orthogonalEdgeStyle;rounded=0;orthogonalLoop=1;jettySize=auto;html=1;exitX=0;exitY=0.5;exitDx=0;exitDy=0;entryX=0.5;entryY=0;entryDx=0;entryDy=0;" edge="1" parent="1" source="e3RdAfa4chM_5yPiw1lw-9" target="e3RdAfa4chM_5yPiw1lw-8">
          <mxGeometry relative="1" as="geometry" />
        </mxCell>
        <mxCell id="e3RdAfa4chM_5yPiw1lw-15" style="edgeStyle=orthogonalEdgeStyle;rounded=0;orthogonalLoop=1;jettySize=auto;html=1;exitX=0;exitY=1;exitDx=0;exitDy=0;entryX=0.5;entryY=0;entryDx=0;entryDy=0;" edge="1" parent="1" source="e3RdAfa4chM_5yPiw1lw-9" target="e3RdAfa4chM_5yPiw1lw-5">
          <mxGeometry relative="1" as="geometry" />
        </mxCell>
        <mxCell id="e3RdAfa4chM_5yPiw1lw-16" style="edgeStyle=orthogonalEdgeStyle;rounded=0;orthogonalLoop=1;jettySize=auto;html=1;exitX=1;exitY=1;exitDx=0;exitDy=0;entryX=0.5;entryY=0;entryDx=0;entryDy=0;" edge="1" parent="1" source="e3RdAfa4chM_5yPiw1lw-9" target="e3RdAfa4chM_5yPiw1lw-6">
          <mxGeometry relative="1" as="geometry" />
        </mxCell>
        <mxCell id="e3RdAfa4chM_5yPiw1lw-17" style="edgeStyle=orthogonalEdgeStyle;rounded=0;orthogonalLoop=1;jettySize=auto;html=1;exitX=1;exitY=0.5;exitDx=0;exitDy=0;entryX=0.5;entryY=0;entryDx=0;entryDy=0;" edge="1" parent="1" source="e3RdAfa4chM_5yPiw1lw-9" target="e3RdAfa4chM_5yPiw1lw-7">
          <mxGeometry relative="1" as="geometry" />
        </mxCell>
        <mxCell id="e3RdAfa4chM_5yPiw1lw-9" value="Elección Ataque&lt;br&gt;Enemigo" style="ellipse;whiteSpace=wrap;html=1;aspect=fixed;" vertex="1" parent="1">
          <mxGeometry x="390" y="520" width="100" height="100" as="geometry" />
        </mxCell>
        <mxCell id="e3RdAfa4chM_5yPiw1lw-21" style="edgeStyle=orthogonalEdgeStyle;rounded=0;orthogonalLoop=1;jettySize=auto;html=1;exitX=1;exitY=1;exitDx=0;exitDy=0;entryX=0.5;entryY=0;entryDx=0;entryDy=0;" edge="1" parent="1" source="e3RdAfa4chM_5yPiw1lw-18" target="e3RdAfa4chM_5yPiw1lw-19">
          <mxGeometry relative="1" as="geometry" />
        </mxCell>
        <mxCell id="e3RdAfa4chM_5yPiw1lw-24" style="edgeStyle=orthogonalEdgeStyle;rounded=0;orthogonalLoop=1;jettySize=auto;html=1;exitX=0;exitY=1;exitDx=0;exitDy=0;entryX=0;entryY=0.5;entryDx=0;entryDy=0;" edge="1" parent="1" source="e3RdAfa4chM_5yPiw1lw-18" target="e3RdAfa4chM_5yPiw1lw-22">
          <mxGeometry relative="1" as="geometry">
            <Array as="points">
              <mxPoint x="105" y="1440" />
            </Array>
          </mxGeometry>
        </mxCell>
        <mxCell id="e3RdAfa4chM_5yPiw1lw-18" value="Muere Enemigo" style="ellipse;whiteSpace=wrap;html=1;aspect=fixed;" vertex="1" parent="1">
          <mxGeometry x="90" y="800" width="100" height="100" as="geometry" />
        </mxCell>
        <mxCell id="e3RdAfa4chM_5yPiw1lw-27" style="edgeStyle=orthogonalEdgeStyle;rounded=0;orthogonalLoop=1;jettySize=auto;html=1;entryX=0;entryY=0;entryDx=0;entryDy=0;exitX=0;exitY=1;exitDx=0;exitDy=0;" edge="1" parent="1" source="e3RdAfa4chM_5yPiw1lw-19" target="e3RdAfa4chM_5yPiw1lw-22">
          <mxGeometry relative="1" as="geometry">
            <Array as="points">
              <mxPoint x="175" y="1320" />
              <mxPoint x="405" y="1320" />
            </Array>
          </mxGeometry>
        </mxCell>
        <mxCell id="e3RdAfa4chM_5yPiw1lw-43" style="edgeStyle=orthogonalEdgeStyle;rounded=0;orthogonalLoop=1;jettySize=auto;html=1;exitX=1;exitY=1;exitDx=0;exitDy=0;entryX=0.013;entryY=0.712;entryDx=0;entryDy=0;entryPerimeter=0;" edge="1" parent="1" source="e3RdAfa4chM_5yPiw1lw-19" target="e3RdAfa4chM_5yPiw1lw-3">
          <mxGeometry relative="1" as="geometry">
            <Array as="points">
              <mxPoint x="280" y="1045" />
              <mxPoint x="280" y="311" />
            </Array>
          </mxGeometry>
        </mxCell>
        <mxCell id="e3RdAfa4chM_5yPiw1lw-19" value="Muere Aliado" style="ellipse;whiteSpace=wrap;html=1;aspect=fixed;" vertex="1" parent="1">
          <mxGeometry x="160" y="960" width="100" height="100" as="geometry" />
        </mxCell>
        <mxCell id="e3RdAfa4chM_5yPiw1lw-22" value="Victoria/Derrota" style="ellipse;whiteSpace=wrap;html=1;aspect=fixed;" vertex="1" parent="1">
          <mxGeometry x="390" y="1400" width="100" height="100" as="geometry" />
        </mxCell>
        <mxCell id="e3RdAfa4chM_5yPiw1lw-32" style="edgeStyle=orthogonalEdgeStyle;rounded=0;orthogonalLoop=1;jettySize=auto;html=1;exitX=0;exitY=1;exitDx=0;exitDy=0;entryX=0.5;entryY=0;entryDx=0;entryDy=0;" edge="1" parent="1" source="e3RdAfa4chM_5yPiw1lw-29" target="e3RdAfa4chM_5yPiw1lw-22">
          <mxGeometry relative="1" as="geometry" />
        </mxCell>
        <mxCell id="e3RdAfa4chM_5yPiw1lw-33" style="edgeStyle=orthogonalEdgeStyle;rounded=0;orthogonalLoop=1;jettySize=auto;html=1;entryX=0;entryY=1;entryDx=0;entryDy=0;" edge="1" parent="1" source="e3RdAfa4chM_5yPiw1lw-29" target="e3RdAfa4chM_5yPiw1lw-3">
          <mxGeometry relative="1" as="geometry">
            <Array as="points">
              <mxPoint x="370" y="940" />
              <mxPoint x="400" y="940" />
              <mxPoint x="400" y="660" />
              <mxPoint x="370" y="660" />
              <mxPoint x="370" y="325" />
            </Array>
          </mxGeometry>
        </mxCell>
        <mxCell id="e3RdAfa4chM_5yPiw1lw-29" value="Muere Enemigo" style="ellipse;whiteSpace=wrap;html=1;aspect=fixed;" vertex="1" parent="1">
          <mxGeometry x="290" y="800" width="100" height="100" as="geometry" />
        </mxCell>
        <mxCell id="e3RdAfa4chM_5yPiw1lw-38" style="edgeStyle=orthogonalEdgeStyle;rounded=0;orthogonalLoop=1;jettySize=auto;html=1;exitX=0;exitY=1;exitDx=0;exitDy=0;entryX=1;entryY=0;entryDx=0;entryDy=0;" edge="1" parent="1" source="e3RdAfa4chM_5yPiw1lw-34" target="e3RdAfa4chM_5yPiw1lw-22">
          <mxGeometry relative="1" as="geometry" />
        </mxCell>
        <mxCell id="e3RdAfa4chM_5yPiw1lw-39" style="edgeStyle=orthogonalEdgeStyle;rounded=0;orthogonalLoop=1;jettySize=auto;html=1;exitX=1;exitY=1;exitDx=0;exitDy=0;entryX=1;entryY=0.5;entryDx=0;entryDy=0;" edge="1" parent="1" source="e3RdAfa4chM_5yPiw1lw-34" target="e3RdAfa4chM_5yPiw1lw-3">
          <mxGeometry relative="1" as="geometry">
            <Array as="points">
              <mxPoint x="630" y="885" />
              <mxPoint x="630" y="290" />
            </Array>
          </mxGeometry>
        </mxCell>
        <mxCell id="e3RdAfa4chM_5yPiw1lw-34" value="Muere Enemigo" style="ellipse;whiteSpace=wrap;html=1;aspect=fixed;" vertex="1" parent="1">
          <mxGeometry x="490" y="800" width="100" height="100" as="geometry" />
        </mxCell>
        <mxCell id="e3RdAfa4chM_5yPiw1lw-42" style="edgeStyle=orthogonalEdgeStyle;rounded=0;orthogonalLoop=1;jettySize=auto;html=1;exitX=0;exitY=1;exitDx=0;exitDy=0;entryX=0.96;entryY=0.302;entryDx=0;entryDy=0;entryPerimeter=0;" edge="1" parent="1" source="e3RdAfa4chM_5yPiw1lw-35" target="e3RdAfa4chM_5yPiw1lw-22">
          <mxGeometry relative="1" as="geometry">
            <Array as="points">
              <mxPoint x="705" y="930" />
              <mxPoint x="590" y="930" />
              <mxPoint x="590" y="1430" />
            </Array>
          </mxGeometry>
        </mxCell>
        <mxCell id="e3RdAfa4chM_5yPiw1lw-45" style="edgeStyle=orthogonalEdgeStyle;rounded=0;orthogonalLoop=1;jettySize=auto;html=1;exitX=1;exitY=1;exitDx=0;exitDy=0;entryX=0.5;entryY=0;entryDx=0;entryDy=0;" edge="1" parent="1" source="e3RdAfa4chM_5yPiw1lw-35" target="e3RdAfa4chM_5yPiw1lw-44">
          <mxGeometry relative="1" as="geometry">
            <Array as="points">
              <mxPoint x="775" y="940" />
              <mxPoint x="670" y="940" />
            </Array>
          </mxGeometry>
        </mxCell>
        <mxCell id="e3RdAfa4chM_5yPiw1lw-35" value="Muere Enemigo" style="ellipse;whiteSpace=wrap;html=1;aspect=fixed;" vertex="1" parent="1">
          <mxGeometry x="690" y="800" width="100" height="100" as="geometry" />
        </mxCell>
        <mxCell id="e3RdAfa4chM_5yPiw1lw-46" style="edgeStyle=orthogonalEdgeStyle;rounded=0;orthogonalLoop=1;jettySize=auto;html=1;exitX=0;exitY=1;exitDx=0;exitDy=0;entryX=1;entryY=0.5;entryDx=0;entryDy=0;" edge="1" parent="1" source="e3RdAfa4chM_5yPiw1lw-44" target="e3RdAfa4chM_5yPiw1lw-22">
          <mxGeometry relative="1" as="geometry">
            <mxPoint x="700" y="1480" as="targetPoint" />
            <Array as="points">
              <mxPoint x="635" y="1450" />
            </Array>
          </mxGeometry>
        </mxCell>
        <mxCell id="e3RdAfa4chM_5yPiw1lw-47" style="edgeStyle=orthogonalEdgeStyle;rounded=0;orthogonalLoop=1;jettySize=auto;html=1;exitX=1;exitY=1;exitDx=0;exitDy=0;entryX=1;entryY=0;entryDx=0;entryDy=0;" edge="1" parent="1" source="e3RdAfa4chM_5yPiw1lw-44" target="e3RdAfa4chM_5yPiw1lw-3">
          <mxGeometry relative="1" as="geometry">
            <Array as="points">
              <mxPoint x="810" y="1045" />
              <mxPoint x="810" y="255" />
            </Array>
          </mxGeometry>
        </mxCell>
        <mxCell id="e3RdAfa4chM_5yPiw1lw-44" value="Muere Aliado" style="ellipse;whiteSpace=wrap;html=1;aspect=fixed;" vertex="1" parent="1">
          <mxGeometry x="620" y="960" width="100" height="100" as="geometry" />
        </mxCell>
        <mxCell id="e3RdAfa4chM_5yPiw1lw-48" style="edgeStyle=orthogonalEdgeStyle;rounded=0;orthogonalLoop=1;jettySize=auto;html=1;exitX=0.5;exitY=1;exitDx=0;exitDy=0;entryX=0.5;entryY=0;entryDx=0;entryDy=0;" edge="1" parent="1" source="e3RdAfa4chM_5yPiw1lw-49" target="e3RdAfa4chM_5yPiw1lw-51">
          <mxGeometry relative="1" as="geometry" />
        </mxCell>
        <mxCell id="e3RdAfa4chM_5yPiw1lw-49" value="Inicio Combate" style="ellipse;whiteSpace=wrap;html=1;aspect=fixed;" vertex="1" parent="1">
          <mxGeometry x="1280" y="100" width="100" height="100" as="geometry" />
        </mxCell>
        <mxCell id="e3RdAfa4chM_5yPiw1lw-50" style="edgeStyle=orthogonalEdgeStyle;rounded=0;orthogonalLoop=1;jettySize=auto;html=1;exitX=0.5;exitY=1;exitDx=0;exitDy=0;entryX=0.5;entryY=0;entryDx=0;entryDy=0;" edge="1" parent="1" source="e3RdAfa4chM_5yPiw1lw-51" target="e3RdAfa4chM_5yPiw1lw-53">
          <mxGeometry relative="1" as="geometry" />
        </mxCell>
        <mxCell id="e3RdAfa4chM_5yPiw1lw-51" value="Elección Ataque&lt;br&gt;Aliado" style="ellipse;whiteSpace=wrap;html=1;aspect=fixed;" vertex="1" parent="1">
          <mxGeometry x="1280" y="240" width="100" height="100" as="geometry" />
        </mxCell>
        <mxCell id="e3RdAfa4chM_5yPiw1lw-52" style="edgeStyle=orthogonalEdgeStyle;rounded=0;orthogonalLoop=1;jettySize=auto;html=1;exitX=0.5;exitY=1;exitDx=0;exitDy=0;entryX=0.5;entryY=0;entryDx=0;entryDy=0;" edge="1" parent="1" source="e3RdAfa4chM_5yPiw1lw-53" target="e3RdAfa4chM_5yPiw1lw-62">
          <mxGeometry relative="1" as="geometry" />
        </mxCell>
        <mxCell id="e3RdAfa4chM_5yPiw1lw-53" value="Esquive" style="ellipse;whiteSpace=wrap;html=1;aspect=fixed;" vertex="1" parent="1">
          <mxGeometry x="1280" y="380" width="100" height="100" as="geometry" />
        </mxCell>
        <mxCell id="e3RdAfa4chM_5yPiw1lw-70" style="edgeStyle=orthogonalEdgeStyle;rounded=0;orthogonalLoop=1;jettySize=auto;html=1;entryX=0;entryY=1;entryDx=0;entryDy=0;" edge="1" parent="1" source="e3RdAfa4chM_5yPiw1lw-54" target="e3RdAfa4chM_5yPiw1lw-51">
          <mxGeometry relative="1" as="geometry">
            <mxPoint x="1150" y="470" as="targetPoint" />
            <Array as="points">
              <mxPoint x="1230" y="780" />
              <mxPoint x="1140" y="780" />
              <mxPoint x="1140" y="325" />
            </Array>
          </mxGeometry>
        </mxCell>
        <mxCell id="e3RdAfa4chM_5yPiw1lw-54" value="Esquive" style="ellipse;whiteSpace=wrap;html=1;aspect=fixed;" vertex="1" parent="1">
          <mxGeometry x="1180" y="660" width="100" height="100" as="geometry" />
        </mxCell>
        <mxCell id="e3RdAfa4chM_5yPiw1lw-71" style="edgeStyle=orthogonalEdgeStyle;rounded=0;orthogonalLoop=1;jettySize=auto;html=1;exitX=0.5;exitY=1;exitDx=0;exitDy=0;" edge="1" parent="1" source="e3RdAfa4chM_5yPiw1lw-55">
          <mxGeometry relative="1" as="geometry">
            <mxPoint x="1380" y="290" as="targetPoint" />
            <Array as="points">
              <mxPoint x="1430" y="785" />
              <mxPoint x="1490" y="785" />
              <mxPoint x="1490" y="290" />
            </Array>
          </mxGeometry>
        </mxCell>
        <mxCell id="e3RdAfa4chM_5yPiw1lw-55" value="Curacion" style="ellipse;whiteSpace=wrap;html=1;aspect=fixed;" vertex="1" parent="1">
          <mxGeometry x="1380" y="665" width="100" height="100" as="geometry" />
        </mxCell>
        <mxCell id="e3RdAfa4chM_5yPiw1lw-74" style="edgeStyle=orthogonalEdgeStyle;rounded=0;orthogonalLoop=1;jettySize=auto;html=1;exitX=1;exitY=1;exitDx=0;exitDy=0;entryX=0.5;entryY=0;entryDx=0;entryDy=0;" edge="1" parent="1" source="e3RdAfa4chM_5yPiw1lw-56" target="e3RdAfa4chM_5yPiw1lw-73">
          <mxGeometry relative="1" as="geometry" />
        </mxCell>
        <mxCell id="e3RdAfa4chM_5yPiw1lw-76" style="edgeStyle=orthogonalEdgeStyle;rounded=0;orthogonalLoop=1;jettySize=auto;html=1;exitX=0;exitY=1;exitDx=0;exitDy=0;entryX=1;entryY=1;entryDx=0;entryDy=0;" edge="1" parent="1" source="e3RdAfa4chM_5yPiw1lw-56" target="e3RdAfa4chM_5yPiw1lw-51">
          <mxGeometry relative="1" as="geometry">
            <Array as="points">
              <mxPoint x="1550" y="745" />
              <mxPoint x="1550" y="325" />
            </Array>
          </mxGeometry>
        </mxCell>
        <mxCell id="e3RdAfa4chM_5yPiw1lw-56" value="Elemental" style="ellipse;whiteSpace=wrap;html=1;aspect=fixed;" vertex="1" parent="1">
          <mxGeometry x="1580" y="660" width="100" height="100" as="geometry" />
        </mxCell>
        <mxCell id="e3RdAfa4chM_5yPiw1lw-63" style="edgeStyle=orthogonalEdgeStyle;rounded=0;orthogonalLoop=1;jettySize=auto;html=1;exitX=0;exitY=1;exitDx=0;exitDy=0;entryX=0;entryY=0.5;entryDx=0;entryDy=0;" edge="1" parent="1" source="e3RdAfa4chM_5yPiw1lw-57" target="e3RdAfa4chM_5yPiw1lw-51">
          <mxGeometry relative="1" as="geometry">
            <Array as="points">
              <mxPoint x="930" y="745" />
              <mxPoint x="930" y="290" />
            </Array>
          </mxGeometry>
        </mxCell>
        <mxCell id="e3RdAfa4chM_5yPiw1lw-65" style="edgeStyle=orthogonalEdgeStyle;rounded=0;orthogonalLoop=1;jettySize=auto;html=1;exitX=1;exitY=1;exitDx=0;exitDy=0;entryX=0.5;entryY=0;entryDx=0;entryDy=0;" edge="1" parent="1" source="e3RdAfa4chM_5yPiw1lw-57" target="e3RdAfa4chM_5yPiw1lw-64">
          <mxGeometry relative="1" as="geometry" />
        </mxCell>
        <mxCell id="e3RdAfa4chM_5yPiw1lw-57" value="Placaje" style="ellipse;whiteSpace=wrap;html=1;aspect=fixed;" vertex="1" parent="1">
          <mxGeometry x="980" y="660" width="100" height="100" as="geometry" />
        </mxCell>
        <mxCell id="e3RdAfa4chM_5yPiw1lw-58" style="edgeStyle=orthogonalEdgeStyle;rounded=0;orthogonalLoop=1;jettySize=auto;html=1;exitX=0;exitY=0.5;exitDx=0;exitDy=0;entryX=0.5;entryY=0;entryDx=0;entryDy=0;" edge="1" parent="1" source="e3RdAfa4chM_5yPiw1lw-62" target="e3RdAfa4chM_5yPiw1lw-57">
          <mxGeometry relative="1" as="geometry" />
        </mxCell>
        <mxCell id="e3RdAfa4chM_5yPiw1lw-59" style="edgeStyle=orthogonalEdgeStyle;rounded=0;orthogonalLoop=1;jettySize=auto;html=1;exitX=0;exitY=1;exitDx=0;exitDy=0;entryX=0.5;entryY=0;entryDx=0;entryDy=0;" edge="1" parent="1" source="e3RdAfa4chM_5yPiw1lw-62" target="e3RdAfa4chM_5yPiw1lw-54">
          <mxGeometry relative="1" as="geometry" />
        </mxCell>
        <mxCell id="e3RdAfa4chM_5yPiw1lw-60" style="edgeStyle=orthogonalEdgeStyle;rounded=0;orthogonalLoop=1;jettySize=auto;html=1;exitX=1;exitY=1;exitDx=0;exitDy=0;entryX=0.5;entryY=0;entryDx=0;entryDy=0;" edge="1" parent="1" source="e3RdAfa4chM_5yPiw1lw-62" target="e3RdAfa4chM_5yPiw1lw-55">
          <mxGeometry relative="1" as="geometry" />
        </mxCell>
        <mxCell id="e3RdAfa4chM_5yPiw1lw-61" style="edgeStyle=orthogonalEdgeStyle;rounded=0;orthogonalLoop=1;jettySize=auto;html=1;exitX=1;exitY=0.5;exitDx=0;exitDy=0;entryX=0.5;entryY=0;entryDx=0;entryDy=0;" edge="1" parent="1" source="e3RdAfa4chM_5yPiw1lw-62" target="e3RdAfa4chM_5yPiw1lw-56">
          <mxGeometry relative="1" as="geometry" />
        </mxCell>
        <mxCell id="e3RdAfa4chM_5yPiw1lw-62" value="Elección Ataque&lt;br&gt;Enemigo" style="ellipse;whiteSpace=wrap;html=1;aspect=fixed;" vertex="1" parent="1">
          <mxGeometry x="1280" y="520" width="100" height="100" as="geometry" />
        </mxCell>
        <mxCell id="e3RdAfa4chM_5yPiw1lw-67" style="edgeStyle=orthogonalEdgeStyle;rounded=0;orthogonalLoop=1;jettySize=auto;html=1;exitX=0;exitY=1;exitDx=0;exitDy=0;entryX=0;entryY=0.5;entryDx=0;entryDy=0;" edge="1" parent="1" source="e3RdAfa4chM_5yPiw1lw-64" target="e3RdAfa4chM_5yPiw1lw-66">
          <mxGeometry relative="1" as="geometry">
            <Array as="points">
              <mxPoint x="995" y="1450" />
            </Array>
          </mxGeometry>
        </mxCell>
        <mxCell id="e3RdAfa4chM_5yPiw1lw-68" style="edgeStyle=orthogonalEdgeStyle;rounded=0;orthogonalLoop=1;jettySize=auto;html=1;exitX=1;exitY=1;exitDx=0;exitDy=0;entryX=0.044;entryY=0.696;entryDx=0;entryDy=0;entryPerimeter=0;" edge="1" parent="1" source="e3RdAfa4chM_5yPiw1lw-64" target="e3RdAfa4chM_5yPiw1lw-51">
          <mxGeometry relative="1" as="geometry">
            <Array as="points">
              <mxPoint x="1090" y="925" />
              <mxPoint x="1090" y="310" />
            </Array>
          </mxGeometry>
        </mxCell>
        <mxCell id="e3RdAfa4chM_5yPiw1lw-64" value="Muere Aliado" style="ellipse;whiteSpace=wrap;html=1;aspect=fixed;" vertex="1" parent="1">
          <mxGeometry x="980" y="840" width="100" height="100" as="geometry" />
        </mxCell>
        <mxCell id="e3RdAfa4chM_5yPiw1lw-66" value="Victoria/Derrota" style="ellipse;whiteSpace=wrap;html=1;aspect=fixed;" vertex="1" parent="1">
          <mxGeometry x="1280" y="1400" width="100" height="100" as="geometry" />
        </mxCell>
        <mxCell id="e3RdAfa4chM_5yPiw1lw-75" style="edgeStyle=orthogonalEdgeStyle;rounded=0;orthogonalLoop=1;jettySize=auto;html=1;exitX=0;exitY=1;exitDx=0;exitDy=0;entryX=1;entryY=0.5;entryDx=0;entryDy=0;" edge="1" parent="1" source="e3RdAfa4chM_5yPiw1lw-73" target="e3RdAfa4chM_5yPiw1lw-66">
          <mxGeometry relative="1" as="geometry" />
        </mxCell>
        <mxCell id="e3RdAfa4chM_5yPiw1lw-77" style="edgeStyle=orthogonalEdgeStyle;rounded=0;orthogonalLoop=1;jettySize=auto;html=1;exitX=1;exitY=1;exitDx=0;exitDy=0;entryX=1;entryY=0;entryDx=0;entryDy=0;" edge="1" parent="1" source="e3RdAfa4chM_5yPiw1lw-73" target="e3RdAfa4chM_5yPiw1lw-51">
          <mxGeometry relative="1" as="geometry">
            <Array as="points">
              <mxPoint x="1710" y="915" />
              <mxPoint x="1710" y="255" />
            </Array>
          </mxGeometry>
        </mxCell>
        <mxCell id="e3RdAfa4chM_5yPiw1lw-73" value="Muere Aliado" style="ellipse;whiteSpace=wrap;html=1;aspect=fixed;" vertex="1" parent="1">
          <mxGeometry x="1510" y="830" width="100" height="100" as="geometry" />
        </mxCell>
        <mxCell id="e3RdAfa4chM_5yPiw1lw-78" style="edgeStyle=orthogonalEdgeStyle;rounded=0;orthogonalLoop=1;jettySize=auto;html=1;exitX=0.5;exitY=1;exitDx=0;exitDy=0;entryX=0.5;entryY=0;entryDx=0;entryDy=0;" edge="1" parent="1" source="e3RdAfa4chM_5yPiw1lw-79" target="e3RdAfa4chM_5yPiw1lw-81">
          <mxGeometry relative="1" as="geometry" />
        </mxCell>
        <mxCell id="e3RdAfa4chM_5yPiw1lw-79" value="Inicio Combate" style="ellipse;whiteSpace=wrap;html=1;aspect=fixed;" vertex="1" parent="1">
          <mxGeometry x="2230" y="100" width="100" height="100" as="geometry" />
        </mxCell>
        <mxCell id="e3RdAfa4chM_5yPiw1lw-80" style="edgeStyle=orthogonalEdgeStyle;rounded=0;orthogonalLoop=1;jettySize=auto;html=1;exitX=0.5;exitY=1;exitDx=0;exitDy=0;entryX=0.5;entryY=0;entryDx=0;entryDy=0;" edge="1" parent="1" source="e3RdAfa4chM_5yPiw1lw-81" target="e3RdAfa4chM_5yPiw1lw-83">
          <mxGeometry relative="1" as="geometry" />
        </mxCell>
        <mxCell id="e3RdAfa4chM_5yPiw1lw-81" value="Elección Ataque&lt;br&gt;Aliado" style="ellipse;whiteSpace=wrap;html=1;aspect=fixed;" vertex="1" parent="1">
          <mxGeometry x="2230" y="240" width="100" height="100" as="geometry" />
        </mxCell>
        <mxCell id="e3RdAfa4chM_5yPiw1lw-82" style="edgeStyle=orthogonalEdgeStyle;rounded=0;orthogonalLoop=1;jettySize=auto;html=1;exitX=0.5;exitY=1;exitDx=0;exitDy=0;entryX=0.5;entryY=0;entryDx=0;entryDy=0;" edge="1" parent="1" source="e3RdAfa4chM_5yPiw1lw-83" target="e3RdAfa4chM_5yPiw1lw-92">
          <mxGeometry relative="1" as="geometry" />
        </mxCell>
        <mxCell id="e3RdAfa4chM_5yPiw1lw-83" value="Curación" style="ellipse;whiteSpace=wrap;html=1;aspect=fixed;" vertex="1" parent="1">
          <mxGeometry x="2230" y="380" width="100" height="100" as="geometry" />
        </mxCell>
        <mxCell id="e3RdAfa4chM_5yPiw1lw-105" style="edgeStyle=orthogonalEdgeStyle;rounded=0;orthogonalLoop=1;jettySize=auto;html=1;entryX=0.5;entryY=0;entryDx=0;entryDy=0;" edge="1" parent="1" source="e3RdAfa4chM_5yPiw1lw-84" target="e3RdAfa4chM_5yPiw1lw-99">
          <mxGeometry relative="1" as="geometry" />
        </mxCell>
        <mxCell id="e3RdAfa4chM_5yPiw1lw-84" value="Esquive" style="ellipse;whiteSpace=wrap;html=1;aspect=fixed;" vertex="1" parent="1">
          <mxGeometry x="2130" y="660" width="100" height="100" as="geometry" />
        </mxCell>
        <mxCell id="e3RdAfa4chM_5yPiw1lw-106" style="edgeStyle=orthogonalEdgeStyle;rounded=0;orthogonalLoop=1;jettySize=auto;html=1;entryX=0.5;entryY=0;entryDx=0;entryDy=0;" edge="1" parent="1" source="e3RdAfa4chM_5yPiw1lw-85" target="e3RdAfa4chM_5yPiw1lw-100">
          <mxGeometry relative="1" as="geometry" />
        </mxCell>
        <mxCell id="e3RdAfa4chM_5yPiw1lw-85" value="Curacion" style="ellipse;whiteSpace=wrap;html=1;aspect=fixed;" vertex="1" parent="1">
          <mxGeometry x="2330" y="665" width="100" height="100" as="geometry" />
        </mxCell>
        <mxCell id="e3RdAfa4chM_5yPiw1lw-107" style="edgeStyle=orthogonalEdgeStyle;rounded=0;orthogonalLoop=1;jettySize=auto;html=1;entryX=0.5;entryY=0;entryDx=0;entryDy=0;" edge="1" parent="1" source="e3RdAfa4chM_5yPiw1lw-86" target="e3RdAfa4chM_5yPiw1lw-101">
          <mxGeometry relative="1" as="geometry" />
        </mxCell>
        <mxCell id="e3RdAfa4chM_5yPiw1lw-86" value="Elemental" style="ellipse;whiteSpace=wrap;html=1;aspect=fixed;" vertex="1" parent="1">
          <mxGeometry x="2530" y="660" width="100" height="100" as="geometry" />
        </mxCell>
        <mxCell id="e3RdAfa4chM_5yPiw1lw-102" style="edgeStyle=orthogonalEdgeStyle;rounded=0;orthogonalLoop=1;jettySize=auto;html=1;entryX=0.5;entryY=0;entryDx=0;entryDy=0;" edge="1" parent="1" source="e3RdAfa4chM_5yPiw1lw-87" target="e3RdAfa4chM_5yPiw1lw-95">
          <mxGeometry relative="1" as="geometry" />
        </mxCell>
        <mxCell id="e3RdAfa4chM_5yPiw1lw-87" value="Placaje" style="ellipse;whiteSpace=wrap;html=1;aspect=fixed;" vertex="1" parent="1">
          <mxGeometry x="1930" y="660" width="100" height="100" as="geometry" />
        </mxCell>
        <mxCell id="e3RdAfa4chM_5yPiw1lw-88" style="edgeStyle=orthogonalEdgeStyle;rounded=0;orthogonalLoop=1;jettySize=auto;html=1;exitX=0;exitY=0.5;exitDx=0;exitDy=0;entryX=0.5;entryY=0;entryDx=0;entryDy=0;" edge="1" parent="1" source="e3RdAfa4chM_5yPiw1lw-92" target="e3RdAfa4chM_5yPiw1lw-87">
          <mxGeometry relative="1" as="geometry" />
        </mxCell>
        <mxCell id="e3RdAfa4chM_5yPiw1lw-89" style="edgeStyle=orthogonalEdgeStyle;rounded=0;orthogonalLoop=1;jettySize=auto;html=1;exitX=0;exitY=1;exitDx=0;exitDy=0;entryX=0.5;entryY=0;entryDx=0;entryDy=0;" edge="1" parent="1" source="e3RdAfa4chM_5yPiw1lw-92" target="e3RdAfa4chM_5yPiw1lw-84">
          <mxGeometry relative="1" as="geometry" />
        </mxCell>
        <mxCell id="e3RdAfa4chM_5yPiw1lw-90" style="edgeStyle=orthogonalEdgeStyle;rounded=0;orthogonalLoop=1;jettySize=auto;html=1;exitX=1;exitY=1;exitDx=0;exitDy=0;entryX=0.5;entryY=0;entryDx=0;entryDy=0;" edge="1" parent="1" source="e3RdAfa4chM_5yPiw1lw-92" target="e3RdAfa4chM_5yPiw1lw-85">
          <mxGeometry relative="1" as="geometry" />
        </mxCell>
        <mxCell id="e3RdAfa4chM_5yPiw1lw-91" style="edgeStyle=orthogonalEdgeStyle;rounded=0;orthogonalLoop=1;jettySize=auto;html=1;exitX=1;exitY=0.5;exitDx=0;exitDy=0;entryX=0.5;entryY=0;entryDx=0;entryDy=0;" edge="1" parent="1" source="e3RdAfa4chM_5yPiw1lw-92" target="e3RdAfa4chM_5yPiw1lw-86">
          <mxGeometry relative="1" as="geometry" />
        </mxCell>
        <mxCell id="e3RdAfa4chM_5yPiw1lw-92" value="Elección Ataque&lt;br&gt;Enemigo" style="ellipse;whiteSpace=wrap;html=1;aspect=fixed;" vertex="1" parent="1">
          <mxGeometry x="2230" y="520" width="100" height="100" as="geometry" />
        </mxCell>
        <mxCell id="e3RdAfa4chM_5yPiw1lw-110" style="edgeStyle=orthogonalEdgeStyle;rounded=0;orthogonalLoop=1;jettySize=auto;html=1;exitX=0;exitY=1;exitDx=0;exitDy=0;entryX=0;entryY=0.5;entryDx=0;entryDy=0;" edge="1" parent="1" source="e3RdAfa4chM_5yPiw1lw-93" target="e3RdAfa4chM_5yPiw1lw-109">
          <mxGeometry relative="1" as="geometry">
            <Array as="points">
              <mxPoint x="1945" y="1450" />
            </Array>
          </mxGeometry>
        </mxCell>
        <mxCell id="e3RdAfa4chM_5yPiw1lw-111" style="edgeStyle=orthogonalEdgeStyle;rounded=0;orthogonalLoop=1;jettySize=auto;html=1;exitX=1;exitY=1;exitDx=0;exitDy=0;entryX=0;entryY=0.5;entryDx=0;entryDy=0;" edge="1" parent="1" source="e3RdAfa4chM_5yPiw1lw-93" target="e3RdAfa4chM_5yPiw1lw-81">
          <mxGeometry relative="1" as="geometry">
            <Array as="points">
              <mxPoint x="2050" y="1005" />
              <mxPoint x="2050" y="290" />
            </Array>
          </mxGeometry>
        </mxCell>
        <mxCell id="e3RdAfa4chM_5yPiw1lw-93" value="Muere Aliado" style="ellipse;whiteSpace=wrap;html=1;aspect=fixed;" vertex="1" parent="1">
          <mxGeometry x="1930" y="920" width="100" height="100" as="geometry" />
        </mxCell>
        <mxCell id="e3RdAfa4chM_5yPiw1lw-103" style="edgeStyle=orthogonalEdgeStyle;rounded=0;orthogonalLoop=1;jettySize=auto;html=1;entryX=0.5;entryY=0;entryDx=0;entryDy=0;" edge="1" parent="1" source="e3RdAfa4chM_5yPiw1lw-95" target="e3RdAfa4chM_5yPiw1lw-93">
          <mxGeometry relative="1" as="geometry" />
        </mxCell>
        <mxCell id="e3RdAfa4chM_5yPiw1lw-95" value="Se Cura" style="ellipse;whiteSpace=wrap;html=1;aspect=fixed;" vertex="1" parent="1">
          <mxGeometry x="1930" y="790" width="100" height="100" as="geometry" />
        </mxCell>
        <mxCell id="e3RdAfa4chM_5yPiw1lw-112" style="edgeStyle=orthogonalEdgeStyle;rounded=0;orthogonalLoop=1;jettySize=auto;html=1;exitX=0.5;exitY=1;exitDx=0;exitDy=0;entryX=0;entryY=1;entryDx=0;entryDy=0;" edge="1" parent="1" source="e3RdAfa4chM_5yPiw1lw-99" target="e3RdAfa4chM_5yPiw1lw-81">
          <mxGeometry relative="1" as="geometry">
            <Array as="points">
              <mxPoint x="2180" y="910" />
              <mxPoint x="2110" y="910" />
              <mxPoint x="2110" y="325" />
            </Array>
          </mxGeometry>
        </mxCell>
        <mxCell id="e3RdAfa4chM_5yPiw1lw-99" value="Se Cura" style="ellipse;whiteSpace=wrap;html=1;aspect=fixed;" vertex="1" parent="1">
          <mxGeometry x="2130" y="790" width="100" height="100" as="geometry" />
        </mxCell>
        <mxCell id="e3RdAfa4chM_5yPiw1lw-113" style="edgeStyle=orthogonalEdgeStyle;rounded=0;orthogonalLoop=1;jettySize=auto;html=1;entryX=1;entryY=1;entryDx=0;entryDy=0;" edge="1" parent="1" source="e3RdAfa4chM_5yPiw1lw-100" target="e3RdAfa4chM_5yPiw1lw-81">
          <mxGeometry relative="1" as="geometry">
            <Array as="points">
              <mxPoint x="2380" y="910" />
              <mxPoint x="2440" y="910" />
              <mxPoint x="2440" y="325" />
            </Array>
          </mxGeometry>
        </mxCell>
        <mxCell id="e3RdAfa4chM_5yPiw1lw-100" value="Se Cura" style="ellipse;whiteSpace=wrap;html=1;aspect=fixed;" vertex="1" parent="1">
          <mxGeometry x="2330" y="790" width="100" height="100" as="geometry" />
        </mxCell>
        <mxCell id="e3RdAfa4chM_5yPiw1lw-115" style="edgeStyle=orthogonalEdgeStyle;rounded=0;orthogonalLoop=1;jettySize=auto;html=1;entryX=0.5;entryY=0;entryDx=0;entryDy=0;" edge="1" parent="1" source="e3RdAfa4chM_5yPiw1lw-101" target="e3RdAfa4chM_5yPiw1lw-114">
          <mxGeometry relative="1" as="geometry" />
        </mxCell>
        <mxCell id="e3RdAfa4chM_5yPiw1lw-101" value="Se Cura" style="ellipse;whiteSpace=wrap;html=1;aspect=fixed;" vertex="1" parent="1">
          <mxGeometry x="2530" y="790" width="100" height="100" as="geometry" />
        </mxCell>
        <mxCell id="e3RdAfa4chM_5yPiw1lw-109" value="Victoria/Derrota" style="ellipse;whiteSpace=wrap;html=1;aspect=fixed;" vertex="1" parent="1">
          <mxGeometry x="2230" y="1400" width="100" height="100" as="geometry" />
        </mxCell>
        <mxCell id="e3RdAfa4chM_5yPiw1lw-116" style="edgeStyle=orthogonalEdgeStyle;rounded=0;orthogonalLoop=1;jettySize=auto;html=1;exitX=0;exitY=1;exitDx=0;exitDy=0;entryX=1;entryY=0.5;entryDx=0;entryDy=0;" edge="1" parent="1" source="e3RdAfa4chM_5yPiw1lw-114" target="e3RdAfa4chM_5yPiw1lw-109">
          <mxGeometry relative="1" as="geometry">
            <Array as="points">
              <mxPoint x="2545" y="1450" />
            </Array>
          </mxGeometry>
        </mxCell>
        <mxCell id="e3RdAfa4chM_5yPiw1lw-117" style="edgeStyle=orthogonalEdgeStyle;rounded=0;orthogonalLoop=1;jettySize=auto;html=1;exitX=1;exitY=1;exitDx=0;exitDy=0;entryX=1;entryY=0.5;entryDx=0;entryDy=0;" edge="1" parent="1" source="e3RdAfa4chM_5yPiw1lw-114" target="e3RdAfa4chM_5yPiw1lw-81">
          <mxGeometry relative="1" as="geometry">
            <Array as="points">
              <mxPoint x="2660" y="1005" />
              <mxPoint x="2660" y="290" />
            </Array>
          </mxGeometry>
        </mxCell>
        <mxCell id="e3RdAfa4chM_5yPiw1lw-114" value="Muere Aliado" style="ellipse;whiteSpace=wrap;html=1;aspect=fixed;" vertex="1" parent="1">
          <mxGeometry x="2530" y="920" width="100" height="100" as="geometry" />
        </mxCell>
        <mxCell id="e3RdAfa4chM_5yPiw1lw-118" style="edgeStyle=orthogonalEdgeStyle;rounded=0;orthogonalLoop=1;jettySize=auto;html=1;exitX=0.5;exitY=1;exitDx=0;exitDy=0;entryX=0.5;entryY=0;entryDx=0;entryDy=0;" edge="1" parent="1" source="e3RdAfa4chM_5yPiw1lw-119" target="e3RdAfa4chM_5yPiw1lw-121">
          <mxGeometry relative="1" as="geometry" />
        </mxCell>
        <mxCell id="e3RdAfa4chM_5yPiw1lw-119" value="Inicio Combate" style="ellipse;whiteSpace=wrap;html=1;aspect=fixed;" vertex="1" parent="1">
          <mxGeometry x="3140" y="100" width="100" height="100" as="geometry" />
        </mxCell>
        <mxCell id="e3RdAfa4chM_5yPiw1lw-120" style="edgeStyle=orthogonalEdgeStyle;rounded=0;orthogonalLoop=1;jettySize=auto;html=1;exitX=0.5;exitY=1;exitDx=0;exitDy=0;entryX=0.5;entryY=0;entryDx=0;entryDy=0;" edge="1" parent="1" source="e3RdAfa4chM_5yPiw1lw-121" target="e3RdAfa4chM_5yPiw1lw-123">
          <mxGeometry relative="1" as="geometry" />
        </mxCell>
        <mxCell id="e3RdAfa4chM_5yPiw1lw-121" value="Elección Ataque&lt;br&gt;Aliado" style="ellipse;whiteSpace=wrap;html=1;aspect=fixed;" vertex="1" parent="1">
          <mxGeometry x="3140" y="240" width="100" height="100" as="geometry" />
        </mxCell>
        <mxCell id="e3RdAfa4chM_5yPiw1lw-122" style="edgeStyle=orthogonalEdgeStyle;rounded=0;orthogonalLoop=1;jettySize=auto;html=1;exitX=0.5;exitY=1;exitDx=0;exitDy=0;entryX=0.5;entryY=0;entryDx=0;entryDy=0;" edge="1" parent="1" source="e3RdAfa4chM_5yPiw1lw-123" target="e3RdAfa4chM_5yPiw1lw-132">
          <mxGeometry relative="1" as="geometry" />
        </mxCell>
        <mxCell id="e3RdAfa4chM_5yPiw1lw-123" value="Elemental" style="ellipse;whiteSpace=wrap;html=1;aspect=fixed;" vertex="1" parent="1">
          <mxGeometry x="3140" y="380" width="100" height="100" as="geometry" />
        </mxCell>
        <mxCell id="e3RdAfa4chM_5yPiw1lw-124" value="Esquive" style="ellipse;whiteSpace=wrap;html=1;aspect=fixed;" vertex="1" parent="1">
          <mxGeometry x="3040" y="660" width="100" height="100" as="geometry" />
        </mxCell>
        <mxCell id="e3RdAfa4chM_5yPiw1lw-125" value="Curacion" style="ellipse;whiteSpace=wrap;html=1;aspect=fixed;" vertex="1" parent="1">
          <mxGeometry x="3240" y="665" width="100" height="100" as="geometry" />
        </mxCell>
        <mxCell id="e3RdAfa4chM_5yPiw1lw-126" value="Elemental" style="ellipse;whiteSpace=wrap;html=1;aspect=fixed;" vertex="1" parent="1">
          <mxGeometry x="3440" y="660" width="100" height="100" as="geometry" />
        </mxCell>
        <mxCell id="e3RdAfa4chM_5yPiw1lw-127" value="Placaje" style="ellipse;whiteSpace=wrap;html=1;aspect=fixed;" vertex="1" parent="1">
          <mxGeometry x="2840" y="660" width="100" height="100" as="geometry" />
        </mxCell>
        <mxCell id="e3RdAfa4chM_5yPiw1lw-128" style="edgeStyle=orthogonalEdgeStyle;rounded=0;orthogonalLoop=1;jettySize=auto;html=1;exitX=0;exitY=0.5;exitDx=0;exitDy=0;entryX=0.5;entryY=0;entryDx=0;entryDy=0;" edge="1" parent="1" source="e3RdAfa4chM_5yPiw1lw-132" target="e3RdAfa4chM_5yPiw1lw-127">
          <mxGeometry relative="1" as="geometry" />
        </mxCell>
        <mxCell id="e3RdAfa4chM_5yPiw1lw-129" style="edgeStyle=orthogonalEdgeStyle;rounded=0;orthogonalLoop=1;jettySize=auto;html=1;exitX=0;exitY=1;exitDx=0;exitDy=0;entryX=0.5;entryY=0;entryDx=0;entryDy=0;" edge="1" parent="1" source="e3RdAfa4chM_5yPiw1lw-132" target="e3RdAfa4chM_5yPiw1lw-124">
          <mxGeometry relative="1" as="geometry" />
        </mxCell>
        <mxCell id="e3RdAfa4chM_5yPiw1lw-130" style="edgeStyle=orthogonalEdgeStyle;rounded=0;orthogonalLoop=1;jettySize=auto;html=1;exitX=1;exitY=1;exitDx=0;exitDy=0;entryX=0.5;entryY=0;entryDx=0;entryDy=0;" edge="1" parent="1" source="e3RdAfa4chM_5yPiw1lw-132" target="e3RdAfa4chM_5yPiw1lw-125">
          <mxGeometry relative="1" as="geometry" />
        </mxCell>
        <mxCell id="e3RdAfa4chM_5yPiw1lw-131" style="edgeStyle=orthogonalEdgeStyle;rounded=0;orthogonalLoop=1;jettySize=auto;html=1;exitX=1;exitY=0.5;exitDx=0;exitDy=0;entryX=0.5;entryY=0;entryDx=0;entryDy=0;" edge="1" parent="1" source="e3RdAfa4chM_5yPiw1lw-132" target="e3RdAfa4chM_5yPiw1lw-126">
          <mxGeometry relative="1" as="geometry" />
        </mxCell>
        <mxCell id="e3RdAfa4chM_5yPiw1lw-132" value="Elección Ataque&lt;br&gt;Enemigo" style="ellipse;whiteSpace=wrap;html=1;aspect=fixed;" vertex="1" parent="1">
          <mxGeometry x="3140" y="520" width="100" height="100" as="geometry" />
        </mxCell>
        <mxCell id="e3RdAfa4chM_5yPiw1lw-154" style="edgeStyle=orthogonalEdgeStyle;rounded=0;orthogonalLoop=1;jettySize=auto;html=1;entryX=0.5;entryY=0;entryDx=0;entryDy=0;" edge="1" parent="1" target="e3RdAfa4chM_5yPiw1lw-167">
          <mxGeometry relative="1" as="geometry">
            <mxPoint x="3090" y="760" as="sourcePoint" />
          </mxGeometry>
        </mxCell>
        <mxCell id="e3RdAfa4chM_5yPiw1lw-155" style="edgeStyle=orthogonalEdgeStyle;rounded=0;orthogonalLoop=1;jettySize=auto;html=1;exitX=1;exitY=1;exitDx=0;exitDy=0;entryX=1;entryY=0;entryDx=0;entryDy=0;" edge="1" parent="1" target="e3RdAfa4chM_5yPiw1lw-170">
          <mxGeometry relative="1" as="geometry">
            <mxPoint x="3325" y="750" as="sourcePoint" />
          </mxGeometry>
        </mxCell>
        <mxCell id="e3RdAfa4chM_5yPiw1lw-156" style="edgeStyle=orthogonalEdgeStyle;rounded=0;orthogonalLoop=1;jettySize=auto;html=1;entryX=0.5;entryY=0;entryDx=0;entryDy=0;" edge="1" parent="1" target="e3RdAfa4chM_5yPiw1lw-173">
          <mxGeometry relative="1" as="geometry">
            <mxPoint x="3490" y="760" as="sourcePoint" />
          </mxGeometry>
        </mxCell>
        <mxCell id="e3RdAfa4chM_5yPiw1lw-157" style="edgeStyle=orthogonalEdgeStyle;rounded=0;orthogonalLoop=1;jettySize=auto;html=1;entryX=0.5;entryY=0;entryDx=0;entryDy=0;" edge="1" parent="1" target="e3RdAfa4chM_5yPiw1lw-160">
          <mxGeometry relative="1" as="geometry">
            <mxPoint x="2890" y="760" as="sourcePoint" />
          </mxGeometry>
        </mxCell>
        <mxCell id="e3RdAfa4chM_5yPiw1lw-158" style="edgeStyle=orthogonalEdgeStyle;rounded=0;orthogonalLoop=1;jettySize=auto;html=1;exitX=1;exitY=1;exitDx=0;exitDy=0;entryX=0.5;entryY=0;entryDx=0;entryDy=0;" edge="1" parent="1" source="e3RdAfa4chM_5yPiw1lw-160" target="e3RdAfa4chM_5yPiw1lw-163">
          <mxGeometry relative="1" as="geometry" />
        </mxCell>
        <mxCell id="e3RdAfa4chM_5yPiw1lw-159" style="edgeStyle=orthogonalEdgeStyle;rounded=0;orthogonalLoop=1;jettySize=auto;html=1;exitX=0;exitY=1;exitDx=0;exitDy=0;entryX=0;entryY=0.5;entryDx=0;entryDy=0;" edge="1" parent="1" source="e3RdAfa4chM_5yPiw1lw-160" target="e3RdAfa4chM_5yPiw1lw-164">
          <mxGeometry relative="1" as="geometry">
            <Array as="points">
              <mxPoint x="2855" y="1440" />
            </Array>
          </mxGeometry>
        </mxCell>
        <mxCell id="e3RdAfa4chM_5yPiw1lw-160" value="Muere Enemigo" style="ellipse;whiteSpace=wrap;html=1;aspect=fixed;" vertex="1" parent="1">
          <mxGeometry x="2840" y="800" width="100" height="100" as="geometry" />
        </mxCell>
        <mxCell id="e3RdAfa4chM_5yPiw1lw-161" style="edgeStyle=orthogonalEdgeStyle;rounded=0;orthogonalLoop=1;jettySize=auto;html=1;entryX=0;entryY=0;entryDx=0;entryDy=0;exitX=0;exitY=1;exitDx=0;exitDy=0;" edge="1" parent="1" source="e3RdAfa4chM_5yPiw1lw-163" target="e3RdAfa4chM_5yPiw1lw-164">
          <mxGeometry relative="1" as="geometry">
            <Array as="points">
              <mxPoint x="2925" y="1320" />
              <mxPoint x="3155" y="1320" />
            </Array>
          </mxGeometry>
        </mxCell>
        <mxCell id="e3RdAfa4chM_5yPiw1lw-162" style="edgeStyle=orthogonalEdgeStyle;rounded=0;orthogonalLoop=1;jettySize=auto;html=1;exitX=1;exitY=1;exitDx=0;exitDy=0;entryX=0.013;entryY=0.712;entryDx=0;entryDy=0;entryPerimeter=0;" edge="1" parent="1" source="e3RdAfa4chM_5yPiw1lw-163">
          <mxGeometry relative="1" as="geometry">
            <mxPoint x="3141" y="311" as="targetPoint" />
            <Array as="points">
              <mxPoint x="3030" y="1045" />
              <mxPoint x="3030" y="311" />
            </Array>
          </mxGeometry>
        </mxCell>
        <mxCell id="e3RdAfa4chM_5yPiw1lw-163" value="Muere Aliado" style="ellipse;whiteSpace=wrap;html=1;aspect=fixed;" vertex="1" parent="1">
          <mxGeometry x="2910" y="960" width="100" height="100" as="geometry" />
        </mxCell>
        <mxCell id="e3RdAfa4chM_5yPiw1lw-164" value="Victoria/Derrota" style="ellipse;whiteSpace=wrap;html=1;aspect=fixed;" vertex="1" parent="1">
          <mxGeometry x="3140" y="1400" width="100" height="100" as="geometry" />
        </mxCell>
        <mxCell id="e3RdAfa4chM_5yPiw1lw-165" style="edgeStyle=orthogonalEdgeStyle;rounded=0;orthogonalLoop=1;jettySize=auto;html=1;exitX=0;exitY=1;exitDx=0;exitDy=0;entryX=0.5;entryY=0;entryDx=0;entryDy=0;" edge="1" parent="1" source="e3RdAfa4chM_5yPiw1lw-167" target="e3RdAfa4chM_5yPiw1lw-164">
          <mxGeometry relative="1" as="geometry" />
        </mxCell>
        <mxCell id="e3RdAfa4chM_5yPiw1lw-166" style="edgeStyle=orthogonalEdgeStyle;rounded=0;orthogonalLoop=1;jettySize=auto;html=1;entryX=0;entryY=1;entryDx=0;entryDy=0;" edge="1" parent="1" source="e3RdAfa4chM_5yPiw1lw-167">
          <mxGeometry relative="1" as="geometry">
            <mxPoint x="3155" y="325" as="targetPoint" />
            <Array as="points">
              <mxPoint x="3120" y="940" />
              <mxPoint x="3150" y="940" />
              <mxPoint x="3150" y="660" />
              <mxPoint x="3120" y="660" />
              <mxPoint x="3120" y="325" />
            </Array>
          </mxGeometry>
        </mxCell>
        <mxCell id="e3RdAfa4chM_5yPiw1lw-167" value="Muere Enemigo" style="ellipse;whiteSpace=wrap;html=1;aspect=fixed;" vertex="1" parent="1">
          <mxGeometry x="3040" y="800" width="100" height="100" as="geometry" />
        </mxCell>
        <mxCell id="e3RdAfa4chM_5yPiw1lw-168" style="edgeStyle=orthogonalEdgeStyle;rounded=0;orthogonalLoop=1;jettySize=auto;html=1;exitX=0;exitY=1;exitDx=0;exitDy=0;entryX=1;entryY=0;entryDx=0;entryDy=0;" edge="1" parent="1" source="e3RdAfa4chM_5yPiw1lw-170" target="e3RdAfa4chM_5yPiw1lw-164">
          <mxGeometry relative="1" as="geometry" />
        </mxCell>
        <mxCell id="e3RdAfa4chM_5yPiw1lw-169" style="edgeStyle=orthogonalEdgeStyle;rounded=0;orthogonalLoop=1;jettySize=auto;html=1;exitX=1;exitY=1;exitDx=0;exitDy=0;entryX=1;entryY=0.5;entryDx=0;entryDy=0;" edge="1" parent="1" source="e3RdAfa4chM_5yPiw1lw-170">
          <mxGeometry relative="1" as="geometry">
            <mxPoint x="3240" y="290" as="targetPoint" />
            <Array as="points">
              <mxPoint x="3380" y="885" />
              <mxPoint x="3380" y="290" />
            </Array>
          </mxGeometry>
        </mxCell>
        <mxCell id="e3RdAfa4chM_5yPiw1lw-170" value="Muere Enemigo" style="ellipse;whiteSpace=wrap;html=1;aspect=fixed;" vertex="1" parent="1">
          <mxGeometry x="3240" y="800" width="100" height="100" as="geometry" />
        </mxCell>
        <mxCell id="e3RdAfa4chM_5yPiw1lw-171" style="edgeStyle=orthogonalEdgeStyle;rounded=0;orthogonalLoop=1;jettySize=auto;html=1;exitX=0;exitY=1;exitDx=0;exitDy=0;entryX=0.96;entryY=0.302;entryDx=0;entryDy=0;entryPerimeter=0;" edge="1" parent="1" source="e3RdAfa4chM_5yPiw1lw-173" target="e3RdAfa4chM_5yPiw1lw-164">
          <mxGeometry relative="1" as="geometry">
            <Array as="points">
              <mxPoint x="3455" y="930" />
              <mxPoint x="3340" y="930" />
              <mxPoint x="3340" y="1430" />
            </Array>
          </mxGeometry>
        </mxCell>
        <mxCell id="e3RdAfa4chM_5yPiw1lw-172" style="edgeStyle=orthogonalEdgeStyle;rounded=0;orthogonalLoop=1;jettySize=auto;html=1;exitX=1;exitY=1;exitDx=0;exitDy=0;entryX=0.5;entryY=0;entryDx=0;entryDy=0;" edge="1" parent="1" source="e3RdAfa4chM_5yPiw1lw-173" target="e3RdAfa4chM_5yPiw1lw-176">
          <mxGeometry relative="1" as="geometry">
            <Array as="points">
              <mxPoint x="3525" y="940" />
              <mxPoint x="3420" y="940" />
            </Array>
          </mxGeometry>
        </mxCell>
        <mxCell id="e3RdAfa4chM_5yPiw1lw-173" value="Muere Enemigo" style="ellipse;whiteSpace=wrap;html=1;aspect=fixed;" vertex="1" parent="1">
          <mxGeometry x="3440" y="800" width="100" height="100" as="geometry" />
        </mxCell>
        <mxCell id="e3RdAfa4chM_5yPiw1lw-174" style="edgeStyle=orthogonalEdgeStyle;rounded=0;orthogonalLoop=1;jettySize=auto;html=1;exitX=0;exitY=1;exitDx=0;exitDy=0;entryX=1;entryY=0.5;entryDx=0;entryDy=0;" edge="1" parent="1" source="e3RdAfa4chM_5yPiw1lw-176" target="e3RdAfa4chM_5yPiw1lw-164">
          <mxGeometry relative="1" as="geometry">
            <mxPoint x="3450" y="1480" as="targetPoint" />
            <Array as="points">
              <mxPoint x="3385" y="1450" />
            </Array>
          </mxGeometry>
        </mxCell>
        <mxCell id="e3RdAfa4chM_5yPiw1lw-175" style="edgeStyle=orthogonalEdgeStyle;rounded=0;orthogonalLoop=1;jettySize=auto;html=1;exitX=1;exitY=1;exitDx=0;exitDy=0;entryX=1;entryY=0;entryDx=0;entryDy=0;" edge="1" parent="1" source="e3RdAfa4chM_5yPiw1lw-176">
          <mxGeometry relative="1" as="geometry">
            <mxPoint x="3225" y="255" as="targetPoint" />
            <Array as="points">
              <mxPoint x="3560" y="1045" />
              <mxPoint x="3560" y="255" />
            </Array>
          </mxGeometry>
        </mxCell>
        <mxCell id="e3RdAfa4chM_5yPiw1lw-176" value="Muere Aliado" style="ellipse;whiteSpace=wrap;html=1;aspect=fixed;" vertex="1" parent="1">
          <mxGeometry x="3370" y="960" width="100" height="100" as="geometry" />
        </mxCell>
        <mxCell id="e3RdAfa4chM_5yPiw1lw-177" style="edgeStyle=orthogonalEdgeStyle;rounded=0;orthogonalLoop=1;jettySize=auto;html=1;entryX=0.5;entryY=0;entryDx=0;entryDy=0;" edge="1" parent="1" source="e3RdAfa4chM_5yPiw1lw-178" target="e3RdAfa4chM_5yPiw1lw-180">
          <mxGeometry relative="1" as="geometry" />
        </mxCell>
        <mxCell id="e3RdAfa4chM_5yPiw1lw-178" value="Inicio MainWindow" style="ellipse;whiteSpace=wrap;html=1;aspect=fixed;" vertex="1" parent="1">
          <mxGeometry x="1880" y="-760" width="100" height="100" as="geometry" />
        </mxCell>
        <mxCell id="e3RdAfa4chM_5yPiw1lw-179" style="edgeStyle=orthogonalEdgeStyle;rounded=0;orthogonalLoop=1;jettySize=auto;html=1;entryX=0.5;entryY=0;entryDx=0;entryDy=0;" edge="1" parent="1" source="e3RdAfa4chM_5yPiw1lw-180" target="e3RdAfa4chM_5yPiw1lw-183">
          <mxGeometry relative="1" as="geometry" />
        </mxCell>
        <mxCell id="e3RdAfa4chM_5yPiw1lw-180" value="Eleccion Pokemons" style="ellipse;whiteSpace=wrap;html=1;aspect=fixed;" vertex="1" parent="1">
          <mxGeometry x="1880" y="-620" width="100" height="100" as="geometry" />
        </mxCell>
        <mxCell id="e3RdAfa4chM_5yPiw1lw-181" style="edgeStyle=orthogonalEdgeStyle;rounded=0;orthogonalLoop=1;jettySize=auto;html=1;exitX=0;exitY=1;exitDx=0;exitDy=0;entryX=0;entryY=0;entryDx=0;entryDy=0;" edge="1" parent="1" source="e3RdAfa4chM_5yPiw1lw-183" target="e3RdAfa4chM_5yPiw1lw-184">
          <mxGeometry relative="1" as="geometry" />
        </mxCell>
        <mxCell id="e3RdAfa4chM_5yPiw1lw-182" style="edgeStyle=orthogonalEdgeStyle;rounded=0;orthogonalLoop=1;jettySize=auto;html=1;exitX=1;exitY=1;exitDx=0;exitDy=0;entryX=1;entryY=0;entryDx=0;entryDy=0;" edge="1" parent="1" source="e3RdAfa4chM_5yPiw1lw-183" target="e3RdAfa4chM_5yPiw1lw-184">
          <mxGeometry relative="1" as="geometry" />
        </mxCell>
        <mxCell id="e3RdAfa4chM_5yPiw1lw-183" value="Eleccion Shiny" style="ellipse;whiteSpace=wrap;html=1;aspect=fixed;" vertex="1" parent="1">
          <mxGeometry x="1880" y="-480" width="100" height="100" as="geometry" />
        </mxCell>
        <mxCell id="e3RdAfa4chM_5yPiw1lw-184" value="Combate" style="ellipse;whiteSpace=wrap;html=1;aspect=fixed;" vertex="1" parent="1">
          <mxGeometry x="1880" y="-340" width="100" height="100" as="geometry" />
        </mxCell>
        <mxCell id="e3RdAfa4chM_5yPiw1lw-185" value="" style="endArrow=none;html=1;rounded=0;" edge="1" parent="1">
          <mxGeometry width="50" height="50" relative="1" as="geometry">
            <mxPoint x="440" as="sourcePoint" />
            <mxPoint x="3930" as="targetPoint" />
          </mxGeometry>
        </mxCell>
        <mxCell id="e3RdAfa4chM_5yPiw1lw-192" value="" style="endArrow=none;html=1;rounded=0;entryX=0.5;entryY=1;entryDx=0;entryDy=0;" edge="1" parent="1" target="e3RdAfa4chM_5yPiw1lw-184">
          <mxGeometry width="50" height="50" relative="1" as="geometry">
            <mxPoint x="1930" as="sourcePoint" />
            <mxPoint x="2270" y="-180" as="targetPoint" />
          </mxGeometry>
        </mxCell>
        <mxCell id="e3RdAfa4chM_5yPiw1lw-193" value="" style="endArrow=classic;html=1;rounded=0;entryX=0.5;entryY=0;entryDx=0;entryDy=0;" edge="1" parent="1" target="e3RdAfa4chM_5yPiw1lw-2">
          <mxGeometry width="50" height="50" relative="1" as="geometry">
            <mxPoint x="440" as="sourcePoint" />
            <mxPoint x="710" y="50" as="targetPoint" />
          </mxGeometry>
        </mxCell>
        <mxCell id="e3RdAfa4chM_5yPiw1lw-195" value="" style="endArrow=classic;html=1;rounded=0;entryX=0.5;entryY=0;entryDx=0;entryDy=0;" edge="1" parent="1" target="e3RdAfa4chM_5yPiw1lw-49">
          <mxGeometry width="50" height="50" relative="1" as="geometry">
            <mxPoint x="1330" as="sourcePoint" />
            <mxPoint x="1330" y="40" as="targetPoint" />
          </mxGeometry>
        </mxCell>
        <mxCell id="e3RdAfa4chM_5yPiw1lw-196" value="" style="endArrow=classic;html=1;rounded=0;entryX=0.5;entryY=0;entryDx=0;entryDy=0;" edge="1" parent="1" target="e3RdAfa4chM_5yPiw1lw-79">
          <mxGeometry width="50" height="50" relative="1" as="geometry">
            <mxPoint x="2280" as="sourcePoint" />
            <mxPoint x="2250" y="80" as="targetPoint" />
          </mxGeometry>
        </mxCell>
        <mxCell id="e3RdAfa4chM_5yPiw1lw-197" value="" style="endArrow=classic;html=1;rounded=0;entryX=0.5;entryY=0;entryDx=0;entryDy=0;" edge="1" parent="1" target="e3RdAfa4chM_5yPiw1lw-119">
          <mxGeometry width="50" height="50" relative="1" as="geometry">
            <mxPoint x="3190" as="sourcePoint" />
            <mxPoint x="3100" y="90" as="targetPoint" />
          </mxGeometry>
        </mxCell>
        <mxCell id="e3RdAfa4chM_5yPiw1lw-201" style="edgeStyle=orthogonalEdgeStyle;rounded=0;orthogonalLoop=1;jettySize=auto;html=1;exitX=0;exitY=1;exitDx=0;exitDy=0;entryX=0.5;entryY=0;entryDx=0;entryDy=0;" edge="1" parent="1" source="e3RdAfa4chM_5yPiw1lw-198" target="e3RdAfa4chM_5yPiw1lw-199">
          <mxGeometry relative="1" as="geometry" />
        </mxCell>
        <mxCell id="e3RdAfa4chM_5yPiw1lw-202" style="edgeStyle=orthogonalEdgeStyle;rounded=0;orthogonalLoop=1;jettySize=auto;html=1;exitX=1;exitY=1;exitDx=0;exitDy=0;entryX=0.5;entryY=0;entryDx=0;entryDy=0;" edge="1" parent="1" source="e3RdAfa4chM_5yPiw1lw-198" target="e3RdAfa4chM_5yPiw1lw-200">
          <mxGeometry relative="1" as="geometry" />
        </mxCell>
        <mxCell id="e3RdAfa4chM_5yPiw1lw-198" value="Inicio&lt;br&gt;Victoria/Derrota" style="ellipse;whiteSpace=wrap;html=1;aspect=fixed;" vertex="1" parent="1">
          <mxGeometry x="1880" y="1690" width="100" height="100" as="geometry" />
        </mxCell>
        <mxCell id="e3RdAfa4chM_5yPiw1lw-204" style="edgeStyle=orthogonalEdgeStyle;rounded=0;orthogonalLoop=1;jettySize=auto;html=1;exitX=0.5;exitY=1;exitDx=0;exitDy=0;entryX=0;entryY=0;entryDx=0;entryDy=0;" edge="1" parent="1" source="e3RdAfa4chM_5yPiw1lw-199" target="e3RdAfa4chM_5yPiw1lw-203">
          <mxGeometry relative="1" as="geometry" />
        </mxCell>
        <mxCell id="e3RdAfa4chM_5yPiw1lw-199" value="Pantalla&lt;br&gt;Victoria" style="ellipse;whiteSpace=wrap;html=1;aspect=fixed;" vertex="1" parent="1">
          <mxGeometry x="1790" y="1880" width="100" height="100" as="geometry" />
        </mxCell>
        <mxCell id="e3RdAfa4chM_5yPiw1lw-205" style="edgeStyle=orthogonalEdgeStyle;rounded=0;orthogonalLoop=1;jettySize=auto;html=1;exitX=0.5;exitY=1;exitDx=0;exitDy=0;entryX=1;entryY=0;entryDx=0;entryDy=0;" edge="1" parent="1" source="e3RdAfa4chM_5yPiw1lw-200" target="e3RdAfa4chM_5yPiw1lw-203">
          <mxGeometry relative="1" as="geometry" />
        </mxCell>
        <mxCell id="e3RdAfa4chM_5yPiw1lw-200" value="Pantalla&lt;br&gt;Derrota" style="ellipse;whiteSpace=wrap;html=1;aspect=fixed;" vertex="1" parent="1">
          <mxGeometry x="1960" y="1880" width="100" height="100" as="geometry" />
        </mxCell>
        <mxCell id="e3RdAfa4chM_5yPiw1lw-208" style="edgeStyle=orthogonalEdgeStyle;rounded=0;orthogonalLoop=1;jettySize=auto;html=1;exitX=1;exitY=1;exitDx=0;exitDy=0;entryX=1;entryY=0;entryDx=0;entryDy=0;" edge="1" parent="1" source="e3RdAfa4chM_5yPiw1lw-203" target="e3RdAfa4chM_5yPiw1lw-207">
          <mxGeometry relative="1" as="geometry" />
        </mxCell>
        <mxCell id="e3RdAfa4chM_5yPiw1lw-209" style="edgeStyle=orthogonalEdgeStyle;rounded=0;orthogonalLoop=1;jettySize=auto;html=1;exitX=0;exitY=1;exitDx=0;exitDy=0;entryX=0;entryY=0.5;entryDx=0;entryDy=0;" edge="1" parent="1" source="e3RdAfa4chM_5yPiw1lw-203" target="e3RdAfa4chM_5yPiw1lw-178">
          <mxGeometry relative="1" as="geometry">
            <Array as="points">
              <mxPoint x="30" y="2125" />
              <mxPoint x="30" y="-710" />
            </Array>
          </mxGeometry>
        </mxCell>
        <mxCell id="e3RdAfa4chM_5yPiw1lw-203" value="Revancha" style="ellipse;whiteSpace=wrap;html=1;aspect=fixed;" vertex="1" parent="1">
          <mxGeometry x="1880" y="2040" width="100" height="100" as="geometry" />
        </mxCell>
        <mxCell id="e3RdAfa4chM_5yPiw1lw-207" value="END" style="ellipse;whiteSpace=wrap;html=1;aspect=fixed;" vertex="1" parent="1">
          <mxGeometry x="1880" y="2200" width="100" height="100" as="geometry" />
        </mxCell>
        <mxCell id="e3RdAfa4chM_5yPiw1lw-211" style="edgeStyle=orthogonalEdgeStyle;rounded=0;orthogonalLoop=1;jettySize=auto;html=1;entryX=0.5;entryY=0;entryDx=0;entryDy=0;" edge="1" parent="1" source="e3RdAfa4chM_5yPiw1lw-210" target="e3RdAfa4chM_5yPiw1lw-178">
          <mxGeometry relative="1" as="geometry" />
        </mxCell>
        <mxCell id="e3RdAfa4chM_5yPiw1lw-210" value="INICIO" style="ellipse;whiteSpace=wrap;html=1;aspect=fixed;" vertex="1" parent="1">
          <mxGeometry x="1880" y="-900" width="100" height="100" as="geometry" />
        </mxCell>
        <mxCell id="e3RdAfa4chM_5yPiw1lw-216" style="edgeStyle=orthogonalEdgeStyle;rounded=0;orthogonalLoop=1;jettySize=auto;html=1;entryX=0.5;entryY=0;entryDx=0;entryDy=0;" edge="1" parent="1" source="e3RdAfa4chM_5yPiw1lw-212" target="e3RdAfa4chM_5yPiw1lw-213">
          <mxGeometry relative="1" as="geometry" />
        </mxCell>
        <mxCell id="e3RdAfa4chM_5yPiw1lw-212" value="Inicio Combate" style="ellipse;whiteSpace=wrap;html=1;aspect=fixed;" vertex="1" parent="1">
          <mxGeometry x="3880" y="100" width="100" height="100" as="geometry" />
        </mxCell>
        <mxCell id="e3RdAfa4chM_5yPiw1lw-215" style="edgeStyle=orthogonalEdgeStyle;rounded=0;orthogonalLoop=1;jettySize=auto;html=1;entryX=0.5;entryY=0;entryDx=0;entryDy=0;" edge="1" parent="1" source="e3RdAfa4chM_5yPiw1lw-213" target="e3RdAfa4chM_5yPiw1lw-214">
          <mxGeometry relative="1" as="geometry" />
        </mxCell>
        <mxCell id="e3RdAfa4chM_5yPiw1lw-213" value="Rendirse" style="ellipse;whiteSpace=wrap;html=1;aspect=fixed;" vertex="1" parent="1">
          <mxGeometry x="3880" y="230" width="100" height="100" as="geometry" />
        </mxCell>
        <mxCell id="e3RdAfa4chM_5yPiw1lw-214" value="Victoria/Derrota" style="ellipse;whiteSpace=wrap;html=1;aspect=fixed;" vertex="1" parent="1">
          <mxGeometry x="3880" y="1400" width="100" height="100" as="geometry" />
        </mxCell>
        <mxCell id="e3RdAfa4chM_5yPiw1lw-217" value="" style="endArrow=classic;html=1;rounded=0;entryX=0.5;entryY=0;entryDx=0;entryDy=0;" edge="1" parent="1" target="e3RdAfa4chM_5yPiw1lw-212">
          <mxGeometry width="50" height="50" relative="1" as="geometry">
            <mxPoint x="3930" as="sourcePoint" />
            <mxPoint x="3660" y="100" as="targetPoint" />
          </mxGeometry>
        </mxCell>
        <mxCell id="e3RdAfa4chM_5yPiw1lw-218" value="" style="endArrow=none;html=1;rounded=0;" edge="1" parent="1">
          <mxGeometry width="50" height="50" relative="1" as="geometry">
            <mxPoint x="440" y="1650" as="sourcePoint" />
            <mxPoint x="3930" y="1650" as="targetPoint" />
          </mxGeometry>
        </mxCell>
        <mxCell id="e3RdAfa4chM_5yPiw1lw-220" value="" style="endArrow=none;html=1;rounded=0;entryX=0.5;entryY=1;entryDx=0;entryDy=0;" edge="1" parent="1" target="e3RdAfa4chM_5yPiw1lw-214">
          <mxGeometry width="50" height="50" relative="1" as="geometry">
            <mxPoint x="3930" y="1650" as="sourcePoint" />
            <mxPoint x="3660" y="1500" as="targetPoint" />
          </mxGeometry>
        </mxCell>
        <mxCell id="e3RdAfa4chM_5yPiw1lw-221" value="" style="endArrow=none;html=1;rounded=0;exitX=0.5;exitY=1;exitDx=0;exitDy=0;" edge="1" parent="1" source="e3RdAfa4chM_5yPiw1lw-164">
          <mxGeometry width="50" height="50" relative="1" as="geometry">
            <mxPoint x="3290" y="1470" as="sourcePoint" />
            <mxPoint x="3190" y="1650" as="targetPoint" />
          </mxGeometry>
        </mxCell>
        <mxCell id="e3RdAfa4chM_5yPiw1lw-222" value="" style="endArrow=none;html=1;rounded=0;exitX=0.5;exitY=1;exitDx=0;exitDy=0;" edge="1" parent="1" source="e3RdAfa4chM_5yPiw1lw-109">
          <mxGeometry width="50" height="50" relative="1" as="geometry">
            <mxPoint x="2220" y="1520" as="sourcePoint" />
            <mxPoint x="2280" y="1650" as="targetPoint" />
          </mxGeometry>
        </mxCell>
        <mxCell id="e3RdAfa4chM_5yPiw1lw-223" value="" style="endArrow=none;html=1;rounded=0;entryX=0.5;entryY=1;entryDx=0;entryDy=0;" edge="1" parent="1" target="e3RdAfa4chM_5yPiw1lw-66">
          <mxGeometry width="50" height="50" relative="1" as="geometry">
            <mxPoint x="1330" y="1650" as="sourcePoint" />
            <mxPoint x="1220" y="1470" as="targetPoint" />
          </mxGeometry>
        </mxCell>
        <mxCell id="e3RdAfa4chM_5yPiw1lw-224" value="" style="endArrow=none;html=1;rounded=0;exitX=0.5;exitY=1;exitDx=0;exitDy=0;" edge="1" parent="1" source="e3RdAfa4chM_5yPiw1lw-22">
          <mxGeometry width="50" height="50" relative="1" as="geometry">
            <mxPoint x="510" y="1520" as="sourcePoint" />
            <mxPoint x="440" y="1650" as="targetPoint" />
          </mxGeometry>
        </mxCell>
        <mxCell id="e3RdAfa4chM_5yPiw1lw-225" value="" style="endArrow=classic;html=1;rounded=0;entryX=0.5;entryY=0;entryDx=0;entryDy=0;" edge="1" parent="1" target="e3RdAfa4chM_5yPiw1lw-198">
          <mxGeometry width="50" height="50" relative="1" as="geometry">
            <mxPoint x="1930" y="1650" as="sourcePoint" />
            <mxPoint x="2040" y="1590" as="targetPoint" />
          </mxGeometry>
        </mxCell>
      </root>
    </mxGraphModel>
  </diagram>
</mxfile>
